<svg width="48" height="48" viewBox="0 0 48 48" fill="none" xmlns="http://www.w3.org/2000/svg">
<path d="M42 26.5C43.3807 26.5 44.5 25.3807 44.5 24C44.5 22.6193 43.3807 21.5 42 21.5V26.5ZM4.23223 22.2322C3.25592 23.2085 3.25592 24.7915 4.23223 25.7678L20.1421 41.6777C21.1184 42.654 22.7014 42.654 23.6777 41.6777C24.654 40.7014 24.654 39.1184 23.6777 38.1421L9.53553 24L23.6777 9.85786C24.654 8.88155 24.654 7.29864 23.6777 6.32233C22.7014 5.34602 21.1184 5.34602 20.1421 6.32233L4.23223 22.2322ZM42 21.5H6V26.5H42V21.5Z" fill="#18181F"/>
</svg>
