<svg width="62" height="64" viewBox="0 0 62 64" fill="none" xmlns="http://www.w3.org/2000/svg">
<path d="M55 34C56.1046 34 57 33.1046 57 32C57 30.8954 56.1046 30 55 30V34ZM5.58578 30.5858C4.80474 31.3668 4.80474 32.6332 5.58578 33.4142L18.3137 46.1421C19.0948 46.9232 20.3611 46.9232 21.1421 46.1421C21.9232 45.3611 21.9232 44.0948 21.1421 43.3137L9.82843 32L21.1421 20.6863C21.9232 19.9052 21.9232 18.6389 21.1421 17.8579C20.3611 17.0768 19.0948 17.0768 18.3137 17.8579L5.58578 30.5858ZM55 30L7 30V34L55 34V30Z" fill="white"/>
</svg>
