<svg width="36" height="37" viewBox="0 0 36 37" fill="none" xmlns="http://www.w3.org/2000/svg">
<path d="M21 14.6492V18.9992H24.9C25.2 18.9992 25.35 19.2992 25.35 19.5992L24.75 22.4492C24.75 22.5992 24.45 22.7492 24.3 22.7492H21V33.6992H16.5V22.8992H13.95C13.65 22.8992 13.5 22.7492 13.5 22.4492V19.5992C13.5 19.2992 13.65 19.1492 13.95 19.1492H16.5V14.1992C16.5 11.6492 18.45 9.69922 21 9.69922H25.05C25.35 9.69922 25.5 9.84922 25.5 10.1492V13.7492C25.5 14.0492 25.35 14.1992 25.05 14.1992H21.45C21.15 14.1992 21 14.3492 21 14.6492Z" stroke="white" stroke-width="1.5" stroke-miterlimit="10" stroke-linecap="round"/>
<path d="M22.5 33.6992H13.5C6 33.6992 3 30.6992 3 23.1992V14.1992C3 6.69922 6 3.69922 13.5 3.69922H22.5C30 3.69922 33 6.69922 33 14.1992V23.1992C33 30.6992 30 33.6992 22.5 33.6992Z" stroke="white" stroke-width="1.5" stroke-linecap="round" stroke-linejoin="round"/>
</svg>
