<svg width="36" height="37" viewBox="0 0 36 37" fill="none" xmlns="http://www.w3.org/2000/svg">
<path d="M13.5 33.6992H22.5C30 33.6992 33 30.6992 33 23.1992V14.1992C33 6.69922 30 3.69922 22.5 3.69922H13.5C6 3.69922 3 6.69922 3 14.1992V23.1992C3 30.6992 6 33.6992 13.5 33.6992Z" stroke="white" stroke-width="1.5" stroke-linecap="round" stroke-linejoin="round"/>
<path d="M18 23.9492C20.8995 23.9492 23.25 21.5987 23.25 18.6992C23.25 15.7997 20.8995 13.4492 18 13.4492C15.1005 13.4492 12.75 15.7997 12.75 18.6992C12.75 21.5987 15.1005 23.9492 18 23.9492Z" stroke="white" stroke-width="1.5" stroke-linecap="round" stroke-linejoin="round"/>
<path d="M26.4542 11.1992H26.4715" stroke="white" stroke-width="2" stroke-linecap="round" stroke-linejoin="round"/>
</svg>
