<?xml version="1.0" encoding="UTF-8"?>
<svg xmlns="http://www.w3.org/2000/svg" viewBox="0 0 1080 1080">
  <defs>
    <style>
      .cls-1 {
        fill: #ff3c00;
        stroke: #ff3c00;
      }

      .cls-1, .cls-2, .cls-3, .cls-4, .cls-5, .cls-6, .cls-7, .cls-8, .cls-9 {
        stroke-miterlimit: 10;
      }

      .cls-1, .cls-2, .cls-3, .cls-5, .cls-6, .cls-7, .cls-8, .cls-9 {
        opacity: .8;
      }

      .cls-1, .cls-2, .cls-4, .cls-5, .cls-6, .cls-7, .cls-8, .cls-9 {
        stroke-width: 2px;
      }

      .cls-2 {
        fill: #ff0019;
        stroke: #ff0019;
      }

      .cls-10 {
        font-family: CaviarDreams-Bold, 'Caviar Dreams';
        font-size: 60.29px;
        font-weight: 700;
      }

      .cls-10, .cls-8 {
        fill: #ff8500;
      }

      .cls-3 {
        fill: #ffbc00;
      }

      .cls-3, .cls-5 {
        stroke: #ffe000;
      }

      .cls-4 {
        opacity: .81;
      }

      .cls-4, .cls-9 {
        fill: #ffb000;
        stroke: #ffb000;
      }

      .cls-5 {
        fill: #ffe000;
      }

      .cls-11 {
        letter-spacing: .36em;
      }

      .cls-6 {
        fill: red;
        stroke: red;
      }

      .cls-7 {
        fill: #ff6700;
        stroke: #ff6700;
      }

      .cls-12 {
        letter-spacing: .37em;
      }

      .cls-8 {
        stroke: #ff8500;
      }

      .cls-13 {
        fill: #5e5e5e;
      }
    </style>
  </defs>
  <g id="Layer_2" data-name="Layer 2">
    <rect class="cls-13" width="1080" height="1080"/>
  </g>
  <g id="Layer_1" data-name="Layer 1">
    <g>
      <path class="cls-1" d="m723.78,449.37c-15.98,17.84-34.68,31.47-55.97,41.75-1.04,3.13-.83,6.35-1,9.5-.5,9.25-2.3,18.24-5.24,27.01-5.45,16.25-15.16,29.67-27.56,41.28-3.34,3.12-7.21,5.31-11.6,6.71-8.63,2.76-17.45,4.48-26.48,5.14-1.69.12-3.38.17-5.07.33-19.29,1.81-37.78-1.83-55.84-8.28-.34-.12-.67-.3-.98-.5-.15-.09-.23-.29-.34-.44-.04-1.1.81-1.13,1.5-1.06,4.29.48,8.62.8,12.85,1.61,7.67,1.49,15.39,1.34,23.04.52,21.54-2.32,40.59-10.64,56.92-24.88,4.23-3.69,8.32-7.67,11.8-12.06,5-6.32,9.49-13.06,13.97-19.77,1.86-2.79,3.24-5.93,4.61-9.01,1.73-3.89,2.15-7.94.64-12.05-1.55-.93-2.94-.08-4.29.38-5.25,1.78-10.62,2.28-16.12,1.86-8.06-.62-12.24-6.11-12.37-12.74-.15-7.56.26-15.05,2.52-22.29.88-2.84,2.08-5.67,3.64-8.18,2.71-4.35,6.19-5.52,11.14-4.4,5.89,1.33,10.65,4.58,14.84,8.77,1.31,1.31,2.54,2.72,3.72,3.99,9.68-2.52,29.76-13.31,35.22-18.94-.61-.44-1.15-.96-1.79-1.25-1.54-.69-3.19-1.15-4.68-1.92-5.03-2.62-7.9-6.56-8.2-12.47-.8-15.48,1.89-30.3,8.05-44.49,2.94-6.78,7.63-12,14.27-15.39.83-.43,1.63-.92,2.56-1.45.65-3.4,1.31-6.85,1.9-9.93,1.61-1.09,2.63-.23,3.57.16,17.3,7.18,33.32,16.5,47.67,28.59,5.48,4.62,10.45,9.74,14.72,15.51,2.92,3.94,5.39,8.14,7.27,12.68,1.83,4.41,2.81,8.96,2.38,13.74-.64,7.11-1.86,14.1-4.13,21.21-18.9,3.28-37.77,3.24-57.13.77Zm5.42-44.68c-4.45-5.47-9.76-9.4-16.1-12.03-3.91-1.63-7.26-.79-10.33,2.04-4.6,4.24-8.41,9.06-11.14,14.69-2.29,4.73-1.92,5.78,2.62,8.64.32.2.63.41.96.58,5.53,2.93,11.53,4.35,17.65,5.35,1.45.24,2.56-.4,3.53-1.34,5.31-5.12,9.34-11.14,12.8-17.93Zm9.75-7.57c.04.9-.05,1.64.12,2.31,1.92,7.55,1.01,14.81-1.96,21.93-.61,1.46-1.98,2.86-.78,5.16,12.21.75,24.61.62,37.02-1.39.23-2.48-1.25-3.79-2.37-5.2-7-8.79-15.98-15.14-25.71-20.51-1.86-1.02-3.59-2.64-6.32-2.29Z"/>
      <path class="cls-4" d="m436.32,490.13c.44-.14,1.66-1.23,1.75-1.35,3.34-4.36,4.84-10.8,4.32-16.38-.85-9.01-3.56-17.43-8.65-24.54-.64-.89-1.48-1.57-2.22-2.33-2.92,1.28-2.3,5.36-4.65,7.31-.3-.9-.71-1.58-.73-2.27-.27-9.2.12-18.36,1.96-27.34.57-2.8,1.13-5.8,3.25-7.7.49.27.89.34,1.07.61,6.12,9.48,11.04,19.69,13,31.49.75,4.49,1.18,9.09,1.33,13.66.26,7.57.34,15.16.21,22.74-.19,11.36-2.69,21.86-7.78,31.77-6.33,12.33-10.81,25.74-14.73,39.37-.75,2.62-1.55,5.23-2.3,7.77-2.42.68-4.18-.71-6.37-1.08.15-1.48.19-2.64.39-3.75,1.58-8.59,2.6-17.27,3.18-26.03.38-5.81-.02-11.58-.87-17.28-.34-2.33-1.05-4.64-1.91-6.79-2.54-6.36-7.38-9.07-14.11-6.12-2.59,1.13-4.84,3.01-6.66,5.41-2.94,3.87-5.96,7.7-8.51,11.92-4.14,6.83-7.86,14-11.87,20.93-2.77,4.78-5.52,9.61-8.66,14.05-4.35,6.14-10.03,10.08-16.65,12.09-3.86,1.17-7.79,1.16-11.66.4-3.75-.74-7.04-2.76-9.88-5.86-5.12-5.57-8.56-12.35-11.01-19.9-2.61-8.06-2.13-17.6-3.01-26.13-.72-19.18.46-37.87,1.95-57.39.85-11.11,2.16-22.18,3.19-33.28.58-6.2,2.1-12.09,3.84-17.94,6.84-21.37,8.53-24.58,15.58-43.15,8.21-19.2,14.81-31.58,23.05-46.23,1.11-1.96,2.15-4.08,4.27-5.5.31.75.69,1.37.82,2.06,1.3,6.9,1.27,13.87.49,20.83-1.7,15.26-5.14,30.08-8.18,45.01-2.53,12.4-4.83,24.87-7.16,37.33-.47,2.52-.56,5.14-.93,7.7-.19,1.3-.2,2.84-1.7,3.4-1.48-1.16-1.52-3.01-1.4-4.72.35-4.76.59-9.57,1.35-14.25,1.92-11.75,4.11-23.43,6.17-35.14,1.13-6.44,2.23-12.89,3.28-19.36.22-1.33.16-2.72.26-4.74-.93.62-1.48.89-1.91,1.31-.38.38-.64.92-.93,1.42-10.99,19.01-17.05,38.43-25.45,59.22-3.72,9.2-7.05,18.6-8.97,28.58-2.08,10.76-2.79,21.62-2.15,32.67,1.25,21.53,9.01,50.81,13.72,56.85,4.4,5.76,8.1,7.37,13.92,7.33,4.4-.52,10.02-3.79,14.65-7.89,5.32-4.71,10.25-9.95,14.53-15.93,5.24-7.34,10.24-14.91,15.29-22.44,2.84-4.23,5.49-8.65,8.37-12.84,1.49-2.16,3.16-4.22,4.98-5.99,5.42-5.29,10.68-5.16,17.3-3.15,3.45,1.04,5.7,2.79,7.82,6.04,1.78,2.73,3.84,6.23,4.7,9.5.39,1.48.58,4.6,1.03,6.02Z"/>
      <path class="cls-8" d="m555,280.2c-.21,1.3-.22,2.02-.44,2.66-2.87,8.54-5.53,17.16-8.72,25.58-4.17,10.97-10.12,20.89-18.23,29.54-10.41,11.1-20.98,22.07-30.18,34.25-7.25,9.61-14.07,19.51-19.85,30.08-5.33,9.76-9.94,19.83-11.99,30.85-.75,4.05-1.38,8.19-1.37,12.29.04,16.29,2.52,32.2,8.8,47.32,1.94,4.66,4.45,9.1,6.9,13.53,1.08,1.96,2.56,3.71,3.99,5.45,10.36,12.59,24.97,16.25,40.1,10.86,9.72-3.46,18.15-9.02,25.34-16.39,4-4.1,7-8.82,7.82-14.67.58-4.13-.43-6.38-4.07-8.37-3.17-1.73-6.64-2.53-10.18-3.13-4.26-.72-8.58-1.22-12.74-2.33-3.78-1.01-7.48-2.48-11.02-4.17-4.06-1.93-6.88-5.28-8.23-9.58-1.06-3.39-2.05-6.87-2.51-10.38-1.18-9.14-1.6-18.37-.99-27.56.28-4.26,1.25-8.56,2.49-12.67,3.27-10.86,8.29-20.94,14.61-30.34,1.46-2.17,3.18-4.19,4.93-6.15,4.92-5.53,10.91-7.64,18.26-5.77,4.46,1.14,8.45,3.06,12,5.96,1.21.99,2.07,2.19,2.09,3.82.08,7.09-1.46,13.76-5.25,19.83-.26.42-.89.62-1.67,1.13-1.07-1.31-2.2-2.51-3.12-3.85-1.88-2.72-4.49-3.77-7.71-3.87-4.29-.14-8.24.86-11.67,3.39-2.1,1.55-4.15,3.29-5.83,5.27-5.29,6.24-9.27,13.25-11.1,21.27-.75,3.26-1.04,6.67-1.18,10.02-.22,5.14,2.3,8.96,6.48,11.77,3.33,2.24,7.04,3.57,10.95,4.25,6.84,1.18,13.69,2.45,20.59,3.22,5.96.67,9.57,3.89,11.8,9.1,2.25,5.27,2.92,10.88,3.23,16.51,1.33,24.37-8.12,44.3-25.62,60.68-8.52,7.97-18.72,12.41-30.56,12.59-10.87.16-20.21-3.62-28.09-11.06-4.97-4.7-8.84-10.22-12.05-16.22-6.06-11.36-10-23.45-12.49-36.05-2.6-13.18-3.15-26.49-2.15-39.83.96-12.83,4.32-25.13,9.17-37.03,5.28-12.94,12.44-24.84,20.39-36.28.96-1.38,2.14-2.62,3.26-3.88,9.85-11.11,19.65-22.27,29.6-33.29,14.01-15.52,24.56-33.15,32.5-52.42.64-1.56,1.27-3.13,2-4.65.18-.38.75-.58,1.7-1.28Z"/>
      <path class="cls-6" d="m759.32,560.03c.7-.12,1.39-.34,2.09-.33,6.65.09,13.03-1.45,19.39-3.17,8.54-2.31,16.8-5.4,24.91-8.87,5.76-2.46,10.85-6.05,15.58-10.03,7.32-6.17,14.5-12.54,21.48-19.09,3.27-3.06,6.25-6.54,8.85-10.19,8.56-11.99,15.23-24.99,20.03-38.93,1.78-5.17,2.91-10.47,3.27-15.95.31-4.73-.88-8.92-3.77-12.64-3.86-4.97-8.56-8.93-14.26-11.67-4.41-2.12-8.95-2.74-13.68-1.28-2.87.88-5.79,1.64-8.56,2.78-8.01,3.29-15.65,7.31-22.81,12.2-1.7,1.16-3.38,2.39-4.93,3.75-2.68,2.35-3.04,5.09-.73,7.92,2.01,2.46,4.4,4.61,6.66,6.86,3.45,3.46,7.11,6.72,10.34,10.36,10.47,11.8,15.07,25.78,14.63,41.44-.06,2.2-.74,4.4-1.27,6.57-.1.4-.88.95-1.26.89-.65-.11-1.55-.51-1.77-1.03-.51-1.18-.75-2.5-.95-3.79-.87-5.56-3.27-10.38-7.21-14.36-5.28-5.34-10.75-10.49-16.05-15.82-3.04-3.05-6.18-6.07-8.78-9.48-4.32-5.67-6.58-12.18-6.47-19.41.1-6.38,0-12.76,1.33-19.07.91-4.37,2.73-8.22,5.87-11.33,2.52-2.51,5.17-4.95,8.02-7.06,8.82-6.5,18.4-11.66,28.69-15.42,3.16-1.16,6.49-1.84,9.75-2.69,5.86-1.52,11.21-.1,16.07,3.18,7.58,5.11,12.99,12.02,15.47,20.83,1.31,4.66,2.24,9.55,2.44,14.38.39,9.37.54,18.79.1,28.16-1.01,21.4-7.08,41.35-18.48,59.57-5.14,8.21-11.63,15.18-19.52,20.86-4.17,3-8.65,5.32-13.7,6.34-7.54,1.52-15.07,3.21-22.68,4.26-12.28,1.69-24.63,2.91-37.07,2.84-3.7-.02-7.41.05-11.08-.45,0-.38.02-.76.03-1.14Z"/>
      <path class="cls-2" d="m896.07,348.96c-.09,1.44-.33,2.9-.26,4.33.58,12.38,1.29,24.75,1.8,37.13.33,7.88.52,15.76.55,23.64.02,4.57-.7,6.35-2.7,9.44-1.19.05-1.58-.82-1.84-1.73-.15-.53-.16-1.12-.13-1.67.69-14.12-.96-28.11-2.27-42.13-1.34-14.39-3.02-28.76-2.79-43.26.11-7.02,1.25-13.81,3.6-20.41.31-.87.76-1.69,1.37-3,.93.97,1.82,1.58,2.28,2.42,3.5,6.43,7.08,12.82,10.34,19.38,6.68,13.44,13.54,26.81,18.8,40.92,4.4,11.79,8.38,23.69,10.87,36.07,1.53,7.6,2.17,15.23,1.71,22.95-.64,10.68-.97,21.4-2.02,32.04-1.78,17.96-4.83,35.71-11.11,52.74-2.35,6.36-5.22,12.46-8.96,18.14-4.2,6.38-9.52,11.54-16.13,15.45-11.11,6.57-23.08,10.8-35.63,13.57-9.91,2.18-19.86,4.09-29.93,5.28-3.54.42-7.12.42-10.69.55-.71.03-1.43-.23-2.06-.34-.57-1.78.6-2.16,1.67-2.45,13.86-3.69,26.79-9.7,39.77-15.64,23.58-10.78,40.97-28.19,54.15-50.12,6.83-11.36,11.61-23.53,13.99-36.62,2.56-14.1,1.81-28-1.84-41.84-3.7-14.02-8.74-27.55-14.69-40.73-4.55-10.09-9.46-20.02-14.26-30.01-.71-1.49-1.64-2.87-2.46-4.3-.37.06-.74.13-1.12.19Z"/>
      <path class="cls-5" d="m310.86,448.82c-2.3.3-2.83-1.44-3.88-2.37-2.49-2.2-4.53-2.13-6.75.36-1.41,1.58-2.27,3.38-2.62,5.51-1.01,6.11-2.19,12.19-3.17,18.31-2.31,14.46-4.47,28.94-6.84,43.38-1.09,6.67-3.01,13.15-5.16,19.58-6.61,19.78-20.6,30.74-40.77,34.47-7.6,1.41-15.28,2.04-23,1.9-9.77-.18-19.55-.51-29.32-.79-2.59-.07-5.12-.39-7.25-2.05.52-1.46,1.6-1.07,2.43-1.16,6.54-.67,13.14-.91,19.61-2.01,37.29-6.31,60.9-28.08,71.58-64.07,3.16-10.63,4.73-21.63,6.76-32.51,1.79-9.59,3.66-19.17,5.77-28.69.81-3.64,2.31-7.13,3.61-10.65.45-1.22,1.19-2.34,1.85-3.48,2-3.42,5.06-4.8,9.43-1.32.87.69,1.68,1.55,2.28,2.48,4.05,6.3,6.44,13.13,6.14,20.72-.03.85-.48,1.68-.7,2.38Z"/>
      <path class="cls-9" d="m391.42,578.65c1.71-2.1,3.1-3.82,4.55-5.6.72-.08,1.47-.3,2.2-.23,2.96.28,4.53,1.69,4.99,4.41,1.26,7.49-4.74,17.44-14.55,16.76-3.81-.26-6.4-1.9-7.95-5.26-1.36-2.95-1.97-6.08-1.47-9.32.4-2.59.9-5.18,1.54-7.72,1.7-6.75,4.11-13.25,7.06-19.56.7-1.5,1.57-2.92,2.44-4.5,1.33.27,2.4.48,3.53.71.12.63.42,1.23.28,1.69-1.25,4.12-2.77,8.17-3.83,12.34-1.1,4.37-1.82,8.86-.67,13.36.24.93,1.08,1.71,1.88,2.93Z"/>
      <path class="cls-8" d="m446.98,563.68c-6.21-2.82-11.84-5.63-17.2-8.75.75-4.78,5.02-15.13,8.44-20.5,4.91,1.5,9.87,3.02,14.35,5.78,1.43.88,2.8,1.91,3.34,3.96-2.39,6.35-3.66,13.45-8.93,19.51Z"/>
      <path class="cls-7" d="m619.4,449.33c-1.23-1.14-2.27-2.17-3.37-3.12-2.02-1.74-3.47-1.72-5.46.02-2.08,1.81-3.15,4.13-3.59,6.82-1.12,6.85-2.33,13.68-3.43,20.53-2.26,14.07-4.4,28.16-6.74,42.22-1.14,6.86-3.2,13.48-5.59,20.02-6.26,17.11-18.51,27.29-36.03,31.58-7.16,1.76-14.42,2.52-21.76,2.5-10.71-.03-21.42-.1-32.12-.34-2.78-.06-5.55-.81-8.31-1.31-.51-.09-.97-.51-1.55-.82,1.76-1.87,3.54-1.42,5.11-1.57,5.23-.51,10.51-.62,15.68-1.44,37.22-5.87,61.42-26.95,72.6-62.83,3.24-10.4,4.83-21.2,6.8-31.89,1.8-9.77,3.67-19.53,5.73-29.25.73-3.47,2-6.83,3.22-10.18.7-1.92,1.61-3.82,2.71-5.54,2.6-4.06,5.68-4.48,9.37-1.29,1.25,1.08,2.34,2.46,3.2,3.88,3.15,5.23,4.82,10.97,5.47,17.01.18,1.65.35,3.41-1.93,5.02Z"/>
      <path class="cls-1" d="m723.78,449.37c-15.98,17.84-34.68,31.47-55.97,41.75-1.04,3.13-.83,6.35-1,9.5-.5,9.25-2.3,18.24-5.24,27.01-5.45,16.25-15.16,29.67-27.56,41.28-3.34,3.12-7.21,5.31-11.6,6.71-8.63,2.76-17.45,4.48-26.48,5.14-1.69.12-3.38.17-5.07.33-19.29,1.81-37.78-1.83-55.84-8.28-.34-.12-.67-.3-.98-.5-.15-.09-.23-.29-.34-.44-.04-1.1.81-1.13,1.5-1.06,4.29.48,8.62.8,12.85,1.61,7.67,1.49,15.39,1.34,23.04.52,21.54-2.32,40.59-10.64,56.92-24.88,4.23-3.69,8.32-7.67,11.8-12.06,5-6.32,9.49-13.06,13.97-19.77,1.86-2.79,3.24-5.93,4.61-9.01,1.73-3.89,2.15-7.94.64-12.05-1.55-.93-2.94-.08-4.29.38-5.25,1.78-10.62,2.28-16.12,1.86-8.06-.62-12.24-6.11-12.37-12.74-.15-7.56.26-15.05,2.52-22.29.88-2.84,2.08-5.67,3.64-8.18,2.71-4.35,6.19-5.52,11.14-4.4,5.89,1.33,10.65,4.58,14.84,8.77,1.31,1.31,2.54,2.72,3.72,3.99,9.68-2.52,29.76-13.31,35.22-18.94-.61-.44-1.15-.96-1.79-1.25-1.54-.69-3.19-1.15-4.68-1.92-5.03-2.62-7.9-6.56-8.2-12.47-.8-15.48,1.89-30.3,8.05-44.49,2.94-6.78,7.63-12,14.27-15.39.83-.43,1.63-.92,2.56-1.45.65-3.4,1.31-6.85,1.9-9.93,1.61-1.09,2.63-.23,3.57.16,17.3,7.18,33.32,16.5,47.67,28.59,5.48,4.62,10.45,9.74,14.72,15.51,2.92,3.94,5.39,8.14,7.27,12.68,1.83,4.41,2.81,8.96,2.38,13.74-.64,7.11-1.86,14.1-4.13,21.21-18.9,3.28-37.77,3.24-57.13.77Zm5.42-44.68c-4.45-5.47-9.76-9.4-16.1-12.03-3.91-1.63-7.26-.79-10.33,2.04-4.6,4.24-8.41,9.06-11.14,14.69-2.29,4.73-1.92,5.78,2.62,8.64.32.2.63.41.96.58,5.53,2.93,11.53,4.35,17.65,5.35,1.45.24,2.56-.4,3.53-1.34,5.31-5.12,9.34-11.14,12.8-17.93Zm9.75-7.57c.04.9-.05,1.64.12,2.31,1.92,7.55,1.01,14.81-1.96,21.93-.61,1.46-1.98,2.86-.78,5.16,12.21.75,24.61.62,37.02-1.39.23-2.48-1.25-3.79-2.37-5.2-7-8.79-15.98-15.14-25.71-20.51-1.86-1.02-3.59-2.64-6.32-2.29Z"/>
      <path class="cls-4" d="m436.32,490.13c.44-.14,1.66-1.23,1.75-1.35,3.34-4.36,4.84-10.8,4.32-16.38-.85-9.01-3.56-17.43-8.65-24.54-.64-.89-1.48-1.57-2.22-2.33-2.92,1.28-2.3,5.36-4.65,7.31-.3-.9-.71-1.58-.73-2.27-.27-9.2.12-18.36,1.96-27.34.57-2.8,1.13-5.8,3.25-7.7.49.27.89.34,1.07.61,6.12,9.48,11.04,19.69,13,31.49.75,4.49,1.18,9.09,1.33,13.66.26,7.57.34,15.16.21,22.74-.19,11.36-2.69,21.86-7.78,31.77-6.33,12.33-10.81,25.74-14.73,39.37-.75,2.62-1.55,5.23-2.3,7.77-2.42.68-4.18-.71-6.37-1.08.15-1.48.19-2.64.39-3.75,1.58-8.59,2.6-17.27,3.18-26.03.38-5.81-.02-11.58-.87-17.28-.34-2.33-1.05-4.64-1.91-6.79-2.54-6.36-7.38-9.07-14.11-6.12-2.59,1.13-4.84,3.01-6.66,5.41-2.94,3.87-5.96,7.7-8.51,11.92-4.14,6.83-7.86,14-11.87,20.93-2.77,4.78-5.52,9.61-8.66,14.05-4.35,6.14-10.03,10.08-16.65,12.09-3.86,1.17-7.79,1.16-11.66.4-3.75-.74-7.04-2.76-9.88-5.86-5.12-5.57-8.56-12.35-11.01-19.9-2.61-8.06-2.13-17.6-3.01-26.13-.72-19.18.46-37.87,1.95-57.39.85-11.11,2.16-22.18,3.19-33.28.58-6.2,2.1-12.09,3.84-17.94,6.84-21.37,8.53-24.58,15.58-43.15,8.21-19.2,14.81-31.58,23.05-46.23,1.11-1.96,2.15-4.08,4.27-5.5.31.75.69,1.37.82,2.06,1.3,6.9,1.27,13.87.49,20.83-1.7,15.26-5.14,30.08-8.18,45.01-2.53,12.4-4.83,24.87-7.16,37.33-.47,2.52-.56,5.14-.93,7.7-.19,1.3-.2,2.84-1.7,3.4-1.48-1.16-1.52-3.01-1.4-4.72.35-4.76.59-9.57,1.35-14.25,1.92-11.75,4.11-23.43,6.17-35.14,1.13-6.44,2.23-12.89,3.28-19.36.22-1.33.16-2.72.26-4.74-.93.62-1.48.89-1.91,1.31-.38.38-.64.92-.93,1.42-10.99,19.01-17.05,38.43-25.45,59.22-3.72,9.2-7.05,18.6-8.97,28.58-2.08,10.76-2.79,21.62-2.15,32.67,1.25,21.53,9.01,50.81,13.72,56.85,4.4,5.76,8.1,7.37,13.92,7.33,4.4-.52,10.02-3.79,14.65-7.89,5.32-4.71,10.25-9.95,14.53-15.93,5.24-7.34,10.24-14.91,15.29-22.44,2.84-4.23,5.49-8.65,8.37-12.84,1.49-2.16,3.16-4.22,4.98-5.99,5.42-5.29,10.68-5.16,17.3-3.15,3.45,1.04,5.7,2.79,7.82,6.04,1.78,2.73,3.84,6.23,4.7,9.5.39,1.48.58,4.6,1.03,6.02Z"/>
      <path class="cls-8" d="m555,280.2c-.21,1.3-.22,2.02-.44,2.66-2.87,8.54-5.53,17.16-8.72,25.58-4.17,10.97-10.12,20.89-18.23,29.54-10.41,11.1-20.98,22.07-30.18,34.25-7.25,9.61-14.07,19.51-19.85,30.08-5.33,9.76-9.94,19.83-11.99,30.85-.75,4.05-1.38,8.19-1.37,12.29.04,16.29,2.52,32.2,8.8,47.32,1.94,4.66,4.45,9.1,6.9,13.53,1.08,1.96,2.56,3.71,3.99,5.45,10.36,12.59,24.97,16.25,40.1,10.86,9.72-3.46,18.15-9.02,25.34-16.39,4-4.1,7-8.82,7.82-14.67.58-4.13-.43-6.38-4.07-8.37-3.17-1.73-6.64-2.53-10.18-3.13-4.26-.72-8.58-1.22-12.74-2.33-3.78-1.01-7.48-2.48-11.02-4.17-4.06-1.93-6.88-5.28-8.23-9.58-1.06-3.39-2.05-6.87-2.51-10.38-1.18-9.14-1.6-18.37-.99-27.56.28-4.26,1.25-8.56,2.49-12.67,3.27-10.86,8.29-20.94,14.61-30.34,1.46-2.17,3.18-4.19,4.93-6.15,4.92-5.53,10.91-7.64,18.26-5.77,4.46,1.14,8.45,3.06,12,5.96,1.21.99,2.07,2.19,2.09,3.82.08,7.09-1.46,13.76-5.25,19.83-.26.42-.89.62-1.67,1.13-1.07-1.31-2.2-2.51-3.12-3.85-1.88-2.72-4.49-3.77-7.71-3.87-4.29-.14-8.24.86-11.67,3.39-2.1,1.55-4.15,3.29-5.83,5.27-5.29,6.24-9.27,13.25-11.1,21.27-.75,3.26-1.04,6.67-1.18,10.02-.22,5.14,2.3,8.96,6.48,11.77,3.33,2.24,7.04,3.57,10.95,4.25,6.84,1.18,13.69,2.45,20.59,3.22,5.96.67,9.57,3.89,11.8,9.1,2.25,5.27,2.92,10.88,3.23,16.51,1.33,24.37-8.12,44.3-25.62,60.68-8.52,7.97-18.72,12.41-30.56,12.59-10.87.16-20.21-3.62-28.09-11.06-4.97-4.7-8.84-10.22-12.05-16.22-6.06-11.36-10-23.45-12.49-36.05-2.6-13.18-3.15-26.49-2.15-39.83.96-12.83,4.32-25.13,9.17-37.03,5.28-12.94,12.44-24.84,20.39-36.28.96-1.38,2.14-2.62,3.26-3.88,9.85-11.11,19.65-22.27,29.6-33.29,14.01-15.52,24.56-33.15,32.5-52.42.64-1.56,1.27-3.13,2-4.65.18-.38.75-.58,1.7-1.28Z"/>
      <path class="cls-6" d="m759.32,560.03c.7-.12,1.39-.34,2.09-.33,6.65.09,13.03-1.45,19.39-3.17,8.54-2.31,16.8-5.4,24.91-8.87,5.76-2.46,10.85-6.05,15.58-10.03,7.32-6.17,14.5-12.54,21.48-19.09,3.27-3.06,6.25-6.54,8.85-10.19,8.56-11.99,15.23-24.99,20.03-38.93,1.78-5.17,2.91-10.47,3.27-15.95.31-4.73-.88-8.92-3.77-12.64-3.86-4.97-8.56-8.93-14.26-11.67-4.41-2.12-8.95-2.74-13.68-1.28-2.87.88-5.79,1.64-8.56,2.78-8.01,3.29-15.65,7.31-22.81,12.2-1.7,1.16-3.38,2.39-4.93,3.75-2.68,2.35-3.04,5.09-.73,7.92,2.01,2.46,4.4,4.61,6.66,6.86,3.45,3.46,7.11,6.72,10.34,10.36,10.47,11.8,15.07,25.78,14.63,41.44-.06,2.2-.74,4.4-1.27,6.57-.1.4-.88.95-1.26.89-.65-.11-1.55-.51-1.77-1.03-.51-1.18-.75-2.5-.95-3.79-.87-5.56-3.27-10.38-7.21-14.36-5.28-5.34-10.75-10.49-16.05-15.82-3.04-3.05-6.18-6.07-8.78-9.48-4.32-5.67-6.58-12.18-6.47-19.41.1-6.38,0-12.76,1.33-19.07.91-4.37,2.73-8.22,5.87-11.33,2.52-2.51,5.17-4.95,8.02-7.06,8.82-6.5,18.4-11.66,28.69-15.42,3.16-1.16,6.49-1.84,9.75-2.69,5.86-1.52,11.21-.1,16.07,3.18,7.58,5.11,12.99,12.02,15.47,20.83,1.31,4.66,2.24,9.55,2.44,14.38.39,9.37.54,18.79.1,28.16-1.01,21.4-7.08,41.35-18.48,59.57-5.14,8.21-11.63,15.18-19.52,20.86-4.17,3-8.65,5.32-13.7,6.34-7.54,1.52-15.07,3.21-22.68,4.26-12.28,1.69-24.63,2.91-37.07,2.84-3.7-.02-7.41.05-11.08-.45,0-.38.02-.76.03-1.14Z"/>
      <path class="cls-2" d="m896.07,348.96c-.09,1.44-.33,2.9-.26,4.33.58,12.38,1.29,24.75,1.8,37.13.33,7.88.52,15.76.55,23.64.02,4.57-.7,6.35-2.7,9.44-1.19.05-1.58-.82-1.84-1.73-.15-.53-.16-1.12-.13-1.67.69-14.12-.96-28.11-2.27-42.13-1.34-14.39-3.02-28.76-2.79-43.26.11-7.02,1.25-13.81,3.6-20.41.31-.87.76-1.69,1.37-3,.93.97,1.82,1.58,2.28,2.42,3.5,6.43,7.08,12.82,10.34,19.38,6.68,13.44,13.54,26.81,18.8,40.92,4.4,11.79,8.38,23.69,10.87,36.07,1.53,7.6,2.17,15.23,1.71,22.95-.64,10.68-.97,21.4-2.02,32.04-1.78,17.96-4.83,35.71-11.11,52.74-2.35,6.36-5.22,12.46-8.96,18.14-4.2,6.38-9.52,11.54-16.13,15.45-11.11,6.57-23.08,10.8-35.63,13.57-9.91,2.18-19.86,4.09-29.93,5.28-3.54.42-7.12.42-10.69.55-.71.03-1.43-.23-2.06-.34-.57-1.78.6-2.16,1.67-2.45,13.86-3.69,26.79-9.7,39.77-15.64,23.58-10.78,40.97-28.19,54.15-50.12,6.83-11.36,11.61-23.53,13.99-36.62,2.56-14.1,1.81-28-1.84-41.84-3.7-14.02-8.74-27.55-14.69-40.73-4.55-10.09-9.46-20.02-14.26-30.01-.71-1.49-1.64-2.87-2.46-4.3-.37.06-.74.13-1.12.19Z"/>
      <path class="cls-3" d="m310.86,448.82c-2.3.3-2.83-1.44-3.88-2.37-2.49-2.2-4.53-2.13-6.75.36-1.41,1.58-2.27,3.38-2.62,5.51-1.01,6.11-2.19,12.19-3.17,18.31-2.31,14.46-4.47,28.94-6.84,43.38-1.09,6.67-3.01,13.15-5.16,19.58-6.61,19.78-20.6,30.74-40.77,34.47-7.6,1.41-15.28,2.04-23,1.9-9.77-.18-19.55-.51-29.32-.79-2.59-.07-5.12-.39-7.25-2.05.52-1.46,1.6-1.07,2.43-1.16,6.54-.67,13.14-.91,19.61-2.01,37.29-6.31,60.9-28.08,71.58-64.07,3.16-10.63,4.73-21.63,6.76-32.51,1.79-9.59,3.66-19.17,5.77-28.69.81-3.64,2.31-7.13,3.61-10.65.45-1.22,1.19-2.34,1.85-3.48,2-3.42,5.06-4.8,9.43-1.32.87.69,1.68,1.55,2.28,2.48,4.05,6.3,6.44,13.13,6.14,20.72-.03.85-.48,1.68-.7,2.38Z"/>
      <path class="cls-9" d="m391.42,578.65c1.71-2.1,3.1-3.82,4.55-5.6.72-.08,1.47-.3,2.2-.23,2.96.28,4.53,1.69,4.99,4.41,1.26,7.49-4.74,17.44-14.55,16.76-3.81-.26-6.4-1.9-7.95-5.26-1.36-2.95-1.97-6.08-1.47-9.32.4-2.59.9-5.18,1.54-7.72,1.7-6.75,4.11-13.25,7.06-19.56.7-1.5,1.57-2.92,2.44-4.5,1.33.27,2.4.48,3.53.71.12.63.42,1.23.28,1.69-1.25,4.12-2.77,8.17-3.83,12.34-1.1,4.37-1.82,8.86-.67,13.36.24.93,1.08,1.71,1.88,2.93Z"/>
      <path class="cls-8" d="m446.98,563.68c-6.21-2.82-11.84-5.63-17.2-8.75.75-4.78,5.02-15.13,8.44-20.5,4.91,1.5,9.87,3.02,14.35,5.78,1.43.88,2.8,1.91,3.34,3.96-2.39,6.35-3.66,13.45-8.93,19.51Z"/>
      <path class="cls-7" d="m619.4,449.33c-1.23-1.14-2.27-2.17-3.37-3.12-2.02-1.74-3.47-1.72-5.46.02-2.08,1.81-3.15,4.13-3.59,6.82-1.12,6.85-2.33,13.68-3.43,20.53-2.26,14.07-4.4,28.16-6.74,42.22-1.14,6.86-3.2,13.48-5.59,20.02-6.26,17.11-18.51,27.29-36.03,31.58-7.16,1.76-14.42,2.52-21.76,2.5-10.71-.03-21.42-.1-32.12-.34-2.78-.06-5.55-.81-8.31-1.31-.51-.09-.97-.51-1.55-.82,1.76-1.87,3.54-1.42,5.11-1.57,5.23-.51,10.51-.62,15.68-1.44,37.22-5.87,61.42-26.95,72.6-62.83,3.24-10.4,4.83-21.2,6.8-31.89,1.8-9.77,3.67-19.53,5.73-29.25.73-3.47,2-6.83,3.22-10.18.7-1.92,1.61-3.82,2.71-5.54,2.6-4.06,5.68-4.48,9.37-1.29,1.25,1.08,2.34,2.46,3.2,3.88,3.15,5.23,4.82,10.97,5.47,17.01.18,1.65.35,3.41-1.93,5.02Z"/>
    </g>
    <text class="cls-10" transform="translate(204.35 661.6) scale(1.02 1)"><tspan class="cls-11" x="0" y="0">Adhoo</tspan><tspan class="cls-12" x="300.41" y="0">r</tspan><tspan class="cls-11" x="342.98" y="0">i Bahar</tspan></text>
  </g>
</svg>