<svg width="62" height="64" viewBox="0 0 62 64" fill="none" xmlns="http://www.w3.org/2000/svg">
<path d="M7 30C5.89543 30 5 30.8954 5 32C5 33.1046 5.89543 34 7 34V30ZM56.4142 33.4142C57.1953 32.6332 57.1953 31.3668 56.4142 30.5858L43.6863 17.8579C42.9052 17.0768 41.6389 17.0768 40.8579 17.8579C40.0768 18.6389 40.0768 19.9052 40.8579 20.6863L52.1716 32L40.8579 43.3137C40.0768 44.0948 40.0768 45.3611 40.8579 46.1421C41.6389 46.9232 42.9052 46.9232 43.6863 46.1421L56.4142 33.4142ZM7 34H55V30H7V34Z" fill="white"/>
</svg>
