<svg width="233" height="96" viewBox="0 0 233 96" fill="none" xmlns="http://www.w3.org/2000/svg">
<path d="M33.7371 96V12.8914H31.2686L18.3771 43.3371H0L19.6114 0H51.2914V96H33.7371Z" fill="black"/>
<path d="M71.291 96V84.7059C71.291 78.1625 72.3666 72.7395 74.5179 68.437C76.6692 64.0448 79.7616 60.4594 83.7952 57.6807C87.9185 54.8123 92.9381 52.4818 98.854 50.6891L107.862 47.8656C111.179 46.7899 113.958 45.4902 116.199 43.9664C118.439 42.3529 120.143 40.4258 121.308 38.1849C122.563 35.944 123.19 33.3894 123.19 30.521V29.9832C123.19 25.5014 121.666 21.9608 118.619 19.3613C115.571 16.6723 111.403 15.3277 106.115 15.3277C100.916 15.3277 96.7028 16.7619 93.4759 19.6303C90.3386 22.409 88.77 26.4426 88.77 31.7311V34.1513H71.5599V32C71.5599 25.1877 73.0837 19.4062 76.1314 14.6555C79.179 9.90476 83.3022 6.27451 88.5011 3.76471C93.7896 1.2549 99.6608 0 106.115 0C112.568 0 118.395 1.2549 123.594 3.76471C128.792 6.18487 132.871 9.63586 135.829 14.1176C138.876 18.5098 140.4 23.7087 140.4 29.7143V31.0588C140.4 37.0644 139.145 42.1737 136.636 46.3866C134.215 50.5098 130.899 53.916 126.686 56.605C122.473 59.2045 117.678 61.3557 112.299 63.0588L103.694 65.7479C99.84 66.9132 96.8372 68.2129 94.686 69.6471C92.5347 70.9916 91.0109 72.5154 90.1145 74.2185C89.3078 75.8319 88.9045 77.8039 88.9045 80.1345V80.6723H139.594V96H71.291Z" fill="black"/>
<path d="M196.703 96C189.622 96 183.347 94.7451 177.879 92.2353C172.412 89.7255 168.109 86.1401 164.972 81.479C161.924 76.7283 160.4 71.1261 160.4 64.6723V62.2521H177.61V64.1345C177.61 69.1541 179.358 73.1877 182.854 76.2353C186.35 79.1933 190.966 80.6723 196.703 80.6723C202.529 80.6723 207.011 79.2829 210.148 76.5042C213.375 73.7255 214.989 70.2297 214.989 66.0168V64.6723C214.989 61.8039 214.272 59.4734 212.837 57.6807C211.403 55.888 209.476 54.5882 207.056 53.7815C204.636 52.8852 201.902 52.437 198.854 52.437H180.031V33.6134L210.417 17.479V15.3277H162.821V0H229.51V22.8571L201.14 37.916V40.0672H206.115C210.328 40.0672 214.406 40.9188 218.35 42.6218C222.384 44.3249 225.7 46.9692 228.3 50.5546C230.899 54.0504 232.199 58.6218 232.199 64.2689V65.8824C232.199 71.9776 230.72 77.3109 227.762 81.8824C224.804 86.3642 220.636 89.8599 215.258 92.3698C209.969 94.7899 203.784 96 196.703 96Z" fill="black"/>
</svg>
