<?xml version="1.0" encoding="UTF-8"?>
<svg id="Layer_1" data-name="Layer 1" xmlns="http://www.w3.org/2000/svg" xmlns:xlink="http://www.w3.org/1999/xlink" viewBox="0 0 2909.7 4368.29">
  <defs>
    <style>
      .cls-1 {
        fill: #6300ff;
      }

      .cls-1, .cls-2, .cls-3, .cls-4, .cls-5, .cls-6, .cls-7, .cls-8, .cls-9, .cls-10, .cls-11, .cls-12, .cls-13, .cls-14, .cls-15 {
        opacity: .4;
      }

      .cls-16 {
        letter-spacing: .11em;
      }

      .cls-17, .cls-18, .cls-19, .cls-20, .cls-21, .cls-22, .cls-23, .cls-24, .cls-25, .cls-26 {
        fill: #fff;
      }

      .cls-27 {
        font-size: 192.74px;
      }

      .cls-27, .cls-28 {
        font-family: CaviarDreams-Bold, 'Caviar Dreams';
        font-weight: 700;
      }

      .cls-18 {
        font-size: 194.96px;
        letter-spacing: .08em;
      }

      .cls-19, .cls-29 {
        letter-spacing: -.02em;
      }

      .cls-30, .cls-31 {
        letter-spacing: 0em;
      }

      .cls-32 {
        letter-spacing: .47em;
      }

      .cls-2 {
        fill: #ff8500;
      }

      .cls-20, .cls-33 {
        font-size: 188px;
      }

      .cls-21 {
        font-size: 188.25px;
      }

      .cls-34, .cls-35 {
        opacity: .1;
      }

      .cls-34, .cls-36 {
        fill: #ffec00;
      }

      .cls-3 {
        fill: #3f3f3f;
      }

      .cls-37, .cls-38, .cls-39, .cls-40, .cls-36, .cls-41 {
        opacity: .73;
      }

      .cls-37, .cls-5 {
        fill: #565656;
      }

      .cls-42 {
        fill: #e8cd05;
        font-size: 180.72px;
        opacity: .73;
      }

      .cls-43 {
        letter-spacing: .1em;
      }

      .cls-38 {
        fill: #00ff8b;
      }

      .cls-44 {
        letter-spacing: -.06em;
      }

      .cls-44, .cls-29, .cls-45 {
        fill: #ff7f00;
      }

      .cls-46 {
        letter-spacing: .01em;
      }

      .cls-4 {
        fill: #0c00ff;
      }

      .cls-47 {
        stroke-width: 5px;
      }

      .cls-47, .cls-48 {
        fill: none;
        stroke: #fff;
        stroke-miterlimit: 10;
      }

      .cls-49 {
        font-size: 170px;
      }

      .cls-49, .cls-33 {
        fill: #8c1996;
      }

      .cls-50, .cls-25 {
        letter-spacing: .1em;
      }

      .cls-50, .cls-31, .cls-51 {
        fill: #2d2d2d;
      }

      .cls-6 {
        fill: #9500ff;
      }

      .cls-52 {
        letter-spacing: -.06em;
      }

      .cls-7 {
        fill: #ff4800;
      }

      .cls-22 {
        font-size: 186.77px;
      }

      .cls-53, .cls-54 {
        opacity: .2;
      }

      .cls-53, .cls-14 {
        fill: red;
      }

      .cls-8 {
        fill: #d300ff;
      }

      .cls-39 {
        fill: #a8ff00;
      }

      .cls-35 {
        fill: #a50729;
      }

      .cls-9 {
        fill: #939393;
      }

      .cls-55 {
        letter-spacing: .5em;
      }

      .cls-56 {
        font-size: 165.71px;
      }

      .cls-10 {
        fill: #5700ff;
      }

      .cls-57 {
        letter-spacing: .22em;
      }

      .cls-58 {
        letter-spacing: .03em;
      }

      .cls-59 {
        letter-spacing: .23em;
      }

      .cls-60 {
        letter-spacing: 0em;
      }

      .cls-61 {
        letter-spacing: .05em;
      }

      .cls-40 {
        fill: #e0ff00;
      }

      .cls-62 {
        letter-spacing: .12em;
      }

      .cls-23 {
        font-size: 219.31px;
      }

      .cls-11 {
        fill: #b400ff;
      }

      .cls-63 {
        letter-spacing: .35em;
      }

      .cls-24 {
        font-size: 199.35px;
      }

      .cls-48 {
        stroke-width: 6px;
      }

      .cls-64 {
        letter-spacing: .05em;
      }

      .cls-65 {
        letter-spacing: -.05em;
      }

      .cls-66 {
        letter-spacing: .06em;
      }

      .cls-67 {
        letter-spacing: .09em;
      }

      .cls-68 {
        fill: #efefef;
      }

      .cls-69 {
        letter-spacing: -.05em;
      }

      .cls-54 {
        fill: #80f;
      }

      .cls-41 {
        fill: #00ff12;
      }

      .cls-12 {
        fill: #ffa300;
      }

      .cls-70 {
        letter-spacing: -.08em;
      }

      .cls-13 {
        fill: #ffc200;
      }

      .cls-71 {
        letter-spacing: .4em;
      }

      .cls-51 {
        letter-spacing: .06em;
      }

      .cls-15 {
        fill: #5000ff;
      }

      .cls-72 {
        letter-spacing: .4em;
      }

      .cls-26 {
        font-size: 175.46px;
      }

      .cls-73 {
        letter-spacing: .39em;
      }

      .cls-74 {
        letter-spacing: .05em;
      }

      .cls-45 {
        letter-spacing: -.03em;
      }

      .cls-75 {
        letter-spacing: .06em;
      }

      .cls-76 {
        letter-spacing: .1em;
      }

      .cls-77 {
        letter-spacing: .08em;
      }

      .cls-78 {
        letter-spacing: .04em;
      }
    </style>
    <image id="image" width="3185" height="1671" xlink:href="Logo_01 (2)1.png"/>
  </defs>
  <rect class="cls-68" x="3.99" width="1445.72" height="2173.41"/>
  <g>
    <polygon class="cls-10" points="1114.42 2030.76 47.74 1879.04 266.76 137.41 1333.44 289.13 1114.42 2030.76"/>
    <polygon class="cls-4" points="1143.89 1981.07 70.05 1904.06 186.09 151.43 1259.93 228.44 1143.89 1981.07"/>
    <polygon class="cls-11" points="1068.99 2069.85 19.09 1817.51 376.73 102.35 1426.62 354.69 1068.99 2069.85"/>
    <polygon class="cls-54" points="1086.02 2066.45 32.99 1827.5 368.76 107.93 1421.78 346.87 1086.02 2066.45"/>
    <polygon class="cls-15" points="1225.41 1989.1 150.07 1939.15 228.8 184.32 1304.15 234.26 1225.41 1989.1"/>
    <polygon class="cls-2" points="1362.45 1880.32 294.32 2034.28 91.77 293.09 1159.89 139.13 1362.45 1880.32"/>
    <polygon class="cls-8" points="1362.45 1880.32 294.32 2034.28 91.77 293.09 1159.89 139.13 1362.45 1880.32"/>
    <polygon class="cls-8" points="1342.76 1898.5 271.43 2021.61 111.45 274.91 1182.78 151.8 1342.76 1898.5"/>
    <polygon class="cls-6" points="1397.77 1845.12 337.59 2056 56.44 328.29 1116.63 117.41 1397.77 1845.12"/>
    <polygon class="cls-35" points="1416.04 1822.29 360.87 2068.08 38.17 351.12 1093.34 105.33 1416.04 1822.29"/>
    <polygon class="cls-1" points="1128.25 2018.98 65.94 1835.76 328.36 100.96 1390.68 284.18 1128.25 2018.98"/>
  </g>
  <use transform="translate(490.39 1558.79) scale(.15 .14)" xlink:href="#image"/>
  <rect class="cls-47" x="182.93" y="252.61" width="1082.21" height="1662.96"/>
  <text class="cls-28" transform="translate(359.99 622.43) scale(1.02 1)"><tspan class="cls-33"><tspan class="cls-71" x="0" y="0">I SE</tspan><tspan class="cls-60" x="621.54" y="0">E</tspan></tspan><tspan class="cls-20"><tspan class="cls-64" x="-1.78" y="195">CO</tspan><tspan class="cls-46" x="341.15" y="195">L</tspan><tspan class="cls-64" x="437.39" y="195">OR</tspan></tspan><tspan class="cls-49"><tspan class="cls-65" x="3.08" y="390">I</tspan><tspan class="cls-52" x="40.41" y="390"> </tspan><tspan class="cls-65" x="89.36" y="390">AM N</tspan><tspan class="cls-70" x="492.76" y="390">O</tspan><tspan class="cls-69" x="635.34" y="390">T</tspan></tspan><tspan class="cls-20"><tspan class="cls-63" x="-11.91" y="585">BLIN</tspan><tspan x="623.07" y="585">D</tspan></tspan></text>
  <rect class="cls-68" x="1463.99" y=".48" width="1445.72" height="2173.41"/>
  <g>
    <g>
      <polygon class="cls-7" points="2574.42 2031.24 1507.74 1879.52 1726.76 137.9 2793.44 289.62 2574.42 2031.24"/>
      <polygon class="cls-14" points="2603.89 1981.55 1530.05 1904.54 1646.09 151.91 2719.93 228.92 2603.89 1981.55"/>
      <polygon class="cls-14" points="2528.99 2070.34 1479.09 1818 1836.73 102.83 2886.62 355.17 2528.99 2070.34"/>
      <polygon class="cls-53" points="2546.02 2066.94 1492.99 1827.99 1828.76 108.41 2881.78 347.36 2546.02 2066.94"/>
      <polygon class="cls-2" points="2685.41 1989.58 1610.07 1939.63 1688.8 184.8 2764.15 234.75 2685.41 1989.58"/>
      <polygon class="cls-2" points="2822.45 1880.8 1754.32 2034.76 1551.77 293.58 2619.89 139.62 2822.45 1880.8"/>
      <polygon class="cls-2" points="2822.45 1880.8 1754.32 2034.76 1551.77 293.58 2619.89 139.62 2822.45 1880.8"/>
      <polygon class="cls-13" points="2802.76 1898.98 1731.43 2022.09 1571.45 275.4 2642.78 152.29 2802.76 1898.98"/>
      <polygon class="cls-13" points="2588.25 2019.46 1525.94 1836.24 1788.36 101.44 2850.68 284.66 2588.25 2019.46"/>
      <polygon class="cls-12" points="2857.77 1845.6 1797.59 2056.49 1516.44 328.78 2576.63 117.89 2857.77 1845.6"/>
      <polygon class="cls-34" points="2876.04 1822.77 1820.87 2068.56 1498.17 351.61 2553.34 105.82 2876.04 1822.77"/>
    </g>
    <rect class="cls-47" x="1653.09" y="253.09" width="1082.21" height="1662.96"/>
  </g>
  <text class="cls-28" transform="translate(1836.02 630.06) scale(1.02 1)"><tspan class="cls-18"><tspan x="0" y="0">GREEN</tspan></tspan><tspan class="cls-26"><tspan class="cls-59" x="16.34" y="185.21">&amp; RE</tspan><tspan x="550.96" y="185.21">D</tspan></tspan><tspan class="cls-56"><tspan class="cls-19" x=".92" y="384.56">ARE </tspan><tspan class="cls-45" x="339.73" y="384.56">N</tspan><tspan class="cls-44" x="445.38" y="384.56">O</tspan><tspan class="cls-29" x="588.18" y="384.56">T</tspan></tspan><tspan class="cls-24"><tspan class="cls-57" x="7.33" y="583.9">SAM</tspan><tspan x="556.38" y="583.9">E</tspan></tspan></text>
  <rect class="cls-68" y="2180" width="1445.72" height="2173.41"/>
  <g>
    <rect class="cls-36" x="130.34" y="2370.67" width="1208.36" height="1821.83" transform="translate(257.94 -47.26) rotate(4.47)"/>
    <rect class="cls-39" x="129.42" y="2382.38" width="1208.36" height="1821.83" transform="translate(-239.49 62.65) rotate(-4.2)"/>
    <rect class="cls-41" x="129.91" y="2376.21" width="1208.36" height="1821.83" transform="translate(-182.99 46.28) rotate(-3.21)"/>
    <rect class="cls-38" x="121.73" y="2335.33" width="1208.36" height="1821.83" transform="translate(255.16 -46.69) rotate(4.47)"/>
    <rect class="cls-40" x="116.52" y="2376.21" width="1208.36" height="1821.83" transform="translate(421.91 -64.79) rotate(7.27)"/>
    <rect class="cls-40" x="131.76" y="2352.46" width="1208.36" height="1821.83" transform="translate(-30.2 6.96) rotate(-.53)"/>
  </g>
  <rect class="cls-48" x="182.75" y="2432.61" width="1082.21" height="1662.96"/>
  <text class="cls-28" transform="translate(280.92 2802.96)"><tspan class="cls-22"><tspan class="cls-61" x="0" y="0">RAINB</tspan><tspan class="cls-78" x="555.39" y="0">O</tspan><tspan x="735.18" y="0">W</tspan></tspan><tspan class="cls-23"><tspan class="cls-55" x="10.03" y="203.31">H</tspan><tspan class="cls-32" x="249.04" y="203.31">A</tspan><tspan class="cls-55" x="500.15" y="203.31">V</tspan><tspan x="757.15" y="203.31">E</tspan></tspan><tspan class="cls-42"><tspan class="cls-73" x="32.94" y="392.49">SEVE</tspan><tspan x="736.25" y="392.49">N</tspan></tspan><tspan class="cls-21"><tspan class="cls-43" x=".42" y="581.68">CO</tspan><tspan class="cls-75" x="362.62" y="581.68">L</tspan><tspan class="cls-76" x="468.4" y="581.68">ORS</tspan></tspan></text>
  <rect class="cls-68" x="1460" y="2194.88" width="1445.72" height="2173.41"/>
  <rect class="cls-37" x="1580.36" y="2390.37" width="1208.36" height="1821.83" transform="translate(263.89 -160.19) rotate(4.47)"/>
  <rect class="cls-5" x="1581.33" y="2377.87" width="1208.36" height="1821.83" transform="translate(-235.25 169.09) rotate(-4.2)"/>
  <rect class="cls-37" x="1576.52" y="2391.09" width="1208.36" height="1821.83" transform="translate(105 -66.99) rotate(1.8)"/>
  <rect class="cls-37" x="1559.73" y="2390.56" width="1208.36" height="1821.83" transform="translate(-30.49 20.19) rotate(-.53)"/>
  <rect class="cls-9" x="1602.48" y="2352.84" width="1208.36" height="1821.83" transform="translate(-30.14 20.58) rotate(-.53)"/>
  <rect class="cls-5" x="1574.04" y="2371.15" width="1208.36" height="1821.83" transform="translate(262.37 -159.75) rotate(4.47)"/>
  <rect class="cls-5" x="1572.59" y="2349.03" width="1208.36" height="1821.83" transform="translate(430.18 -249.33) rotate(7.27)"/>
  <rect class="cls-5" x="1578.68" y="2371.52" width="1208.36" height="1821.83" transform="translate(-381.94 288.93) rotate(-6.97)"/>
  <rect class="cls-3" x="1591.61" y="2350.69" width="1208.36" height="1821.83" transform="translate(260.83 -161.18) rotate(4.47)"/>
  <rect class="cls-47" x="1653.32" y="2447.49" width="1082.21" height="1662.96"/>
  <use transform="translate(1940.8 3753.67) scale(.15 .14)" xlink:href="#image"/>
  <use transform="translate(450.78 3753.67) scale(.15 .14)" xlink:href="#image"/>
  <text class="cls-27" transform="translate(1798.8 2824.94) scale(1.02 1)"><tspan class="cls-25" x="0" y="0">ITS </tspan><tspan class="cls-50" x="398.11" y="0">N</tspan><tspan class="cls-51" x="545.09" y="0">O</tspan><tspan class="cls-31" x="735.27" y="0">T</tspan><tspan class="cls-17"><tspan class="cls-62" x="-1.5" y="192.74">A</tspan><tspan class="cls-66" x="150.16" y="192.74">L</tspan><tspan class="cls-67" x="256.94" y="192.74">W</tspan><tspan class="cls-77" x="432.31" y="192.74">A</tspan><tspan class="cls-16" x="577.1" y="192.74">Y</tspan><tspan x="732.34" y="192.74">S</tspan></tspan><tspan class="cls-17"><tspan class="cls-74" x="-8.18" y="385.48">BL</tspan><tspan class="cls-58" x="214.51" y="385.48">A</tspan><tspan class="cls-74" x="350.65" y="385.48">CK </tspan><tspan x="716.53" y="385.48">&amp;</tspan></tspan><tspan class="cls-17"><tspan class="cls-72" x="-2.02" y="578.22">WHIT</tspan><tspan class="cls-30" x="729.48" y="578.22">E</tspan></tspan></text>
  <use transform="translate(1938.41 1558.79) scale(.15 .14)" xlink:href="#image"/>
</svg>