<?xml version="1.0" encoding="UTF-8"?>
<svg id="Layer_1" data-name="Layer 1" xmlns="http://www.w3.org/2000/svg" xmlns:xlink="http://www.w3.org/1999/xlink" viewBox="0 0 1440 2160">
  <defs>
    <style>
      .cls-1 {
        fill: #6300ff;
      }

      .cls-1, .cls-2, .cls-3, .cls-4, .cls-5, .cls-6, .cls-7, .cls-8 {
        opacity: .4;
      }

      .cls-2 {
        fill: #ff8500;
      }

      .cls-9 {
        fill: #fff;
      }

      .cls-9, .cls-10 {
        font-size: 188px;
      }

      .cls-11 {
        letter-spacing: .01em;
      }

      .cls-3 {
        fill: #0c00ff;
      }

      .cls-12 {
        fill: none;
        stroke: #fff;
        stroke-miterlimit: 10;
        stroke-width: 5px;
      }

      .cls-13 {
        font-size: 170px;
      }

      .cls-13, .cls-10 {
        fill: #8c1996;
      }

      .cls-4 {
        fill: #9500ff;
      }

      .cls-14 {
        letter-spacing: -.06em;
      }

      .cls-5 {
        fill: #d300ff;
      }

      .cls-15 {
        fill: #a50729;
        opacity: .1;
      }

      .cls-6 {
        fill: #5700ff;
      }

      .cls-16 {
        font-family: CaviarDreams-Bold, 'Caviar Dreams';
        font-weight: 700;
      }

      .cls-17 {
        letter-spacing: 0em;
      }

      .cls-7 {
        fill: #b400ff;
      }

      .cls-18 {
        letter-spacing: .35em;
      }

      .cls-19 {
        letter-spacing: .05em;
      }

      .cls-20 {
        letter-spacing: -.05em;
      }

      .cls-21 {
        fill: #efefef;
      }

      .cls-22 {
        letter-spacing: -.05em;
      }

      .cls-23 {
        fill: #80f;
        opacity: .2;
      }

      .cls-24 {
        letter-spacing: -.08em;
      }

      .cls-25 {
        letter-spacing: .4em;
      }

      .cls-8 {
        fill: #5000ff;
      }
    </style>
  </defs>
  <rect class="cls-21" x="-2.86" y="-6.71" width="1445.72" height="2173.41"/>
  <g>
    <polygon class="cls-6" points="1107.57 2024.05 40.9 1872.33 259.91 130.71 1326.59 282.43 1107.57 2024.05"/>
    <polygon class="cls-3" points="1137.04 1974.36 63.2 1897.35 179.25 144.72 1253.09 221.73 1137.04 1974.36"/>
    <polygon class="cls-7" points="1062.14 2063.15 12.25 1810.81 369.88 95.65 1419.78 347.98 1062.14 2063.15"/>
    <polygon class="cls-23" points="1079.17 2059.75 26.15 1820.8 361.91 101.22 1414.94 340.17 1079.17 2059.75"/>
    <polygon class="cls-8" points="1218.57 1982.39 143.22 1932.44 221.95 177.61 1297.3 227.56 1218.57 1982.39"/>
    <polygon class="cls-2" points="1355.6 1873.61 287.48 2027.57 84.92 286.39 1153.04 132.43 1355.6 1873.61"/>
    <polygon class="cls-5" points="1355.6 1873.61 287.48 2027.57 84.92 286.39 1153.04 132.43 1355.6 1873.61"/>
    <polygon class="cls-5" points="1335.91 1891.79 264.58 2014.9 104.61 268.21 1175.94 145.1 1335.91 1891.79"/>
    <polygon class="cls-4" points="1390.93 1838.41 330.74 2049.3 49.59 321.59 1109.78 110.7 1390.93 1838.41"/>
    <polygon class="cls-15" points="1409.19 1815.58 354.03 2061.37 31.33 344.42 1086.49 98.63 1409.19 1815.58"/>
    <polygon class="cls-1" points="1121.41 2012.27 59.09 1829.05 321.51 94.25 1383.83 277.47 1121.41 2012.27"/>
  </g>
  <image width="3185" height="1671" transform="translate(483.55 1552.09) scale(.15 .14)" xlink:href="Logo_01 (2)1.png"/>
  <rect class="cls-12" x="176.08" y="245.9" width="1082.21" height="1662.96"/>
  <text class="cls-16" transform="translate(353.14 615.72) scale(1.02 1)"><tspan class="cls-10"><tspan class="cls-25" x="0" y="0">I SE</tspan><tspan class="cls-17" x="621.54" y="0">E</tspan></tspan><tspan class="cls-9"><tspan class="cls-19" x="-1.78" y="195">CO</tspan><tspan class="cls-11" x="341.15" y="195">L</tspan><tspan class="cls-19" x="437.39" y="195">OR</tspan></tspan><tspan class="cls-13"><tspan class="cls-20" x="3.08" y="390">I</tspan><tspan class="cls-14" x="40.41" y="390"> </tspan><tspan class="cls-20" x="89.36" y="390">AM N</tspan><tspan class="cls-24" x="492.76" y="390">O</tspan><tspan class="cls-22" x="635.34" y="390">T</tspan></tspan><tspan class="cls-9"><tspan class="cls-18" x="-11.91" y="585">BLIN</tspan><tspan x="623.07" y="585">D</tspan></tspan></text>
</svg>