<?xml version="1.0" encoding="UTF-8"?>
<svg id="Layer_1" data-name="Layer 1" xmlns="http://www.w3.org/2000/svg" xmlns:xlink="http://www.w3.org/1999/xlink" viewBox="0 0 1440 2160">
  <defs>
    <style>
      .cls-1 {
        font-size: 194.96px;
        letter-spacing: .08em;
      }

      .cls-1, .cls-2, .cls-3, .cls-4 {
        fill: #fff;
      }

      .cls-2, .cls-5 {
        letter-spacing: -.02em;
      }

      .cls-6 {
        fill: #ff8500;
      }

      .cls-6, .cls-7, .cls-8, .cls-9, .cls-10 {
        opacity: .4;
      }

      .cls-11 {
        fill: #ffec00;
        opacity: .1;
      }

      .cls-12 {
        letter-spacing: -.06em;
      }

      .cls-12, .cls-5, .cls-13 {
        fill: #ff7f00;
      }

      .cls-14 {
        fill: none;
        stroke: #fff;
        stroke-miterlimit: 10;
        stroke-width: 5px;
      }

      .cls-7 {
        fill: #ff4800;
      }

      .cls-15 {
        opacity: .2;
      }

      .cls-15, .cls-10 {
        fill: red;
      }

      .cls-16 {
        font-size: 165.71px;
      }

      .cls-17 {
        letter-spacing: .22em;
      }

      .cls-18 {
        font-family: CaviarDreams-Bold, 'Caviar Dreams';
        font-weight: 700;
      }

      .cls-19 {
        letter-spacing: .23em;
      }

      .cls-3 {
        font-size: 199.35px;
      }

      .cls-8 {
        fill: #ffa300;
      }

      .cls-9 {
        fill: #ffc200;
      }

      .cls-4 {
        font-size: 175.46px;
      }

      .cls-13 {
        letter-spacing: -.03em;
      }
    </style>
  </defs>
  <rect x="-5.72" y="-13.41" width="1445.72" height="2173.41"/>
  <g>
    <g>
      <polygon class="cls-7" points="1104.72 2017.35 38.04 1865.63 257.06 124 1323.74 275.72 1104.72 2017.35"/>
      <polygon class="cls-10" points="1134.18 1967.66 60.34 1890.65 176.39 138.02 1250.23 215.03 1134.18 1967.66"/>
      <polygon class="cls-10" points="1059.28 2056.44 9.39 1804.1 367.02 88.94 1416.92 341.28 1059.28 2056.44"/>
      <polygon class="cls-15" points="1076.31 2053.04 23.29 1814.09 359.06 94.52 1412.08 333.46 1076.31 2053.04"/>
      <polygon class="cls-6" points="1215.71 1975.68 140.36 1925.74 219.1 170.9 1294.44 220.85 1215.71 1975.68"/>
      <polygon class="cls-6" points="1352.74 1866.91 284.62 2020.87 82.06 279.68 1150.18 125.72 1352.74 1866.91"/>
      <polygon class="cls-6" points="1352.74 1866.91 284.62 2020.87 82.06 279.68 1150.18 125.72 1352.74 1866.91"/>
      <polygon class="cls-9" points="1333.06 1885.09 261.73 2008.2 101.75 261.5 1173.08 138.39 1333.06 1885.09"/>
      <polygon class="cls-9" points="1118.55 2005.56 56.23 1822.35 318.66 87.55 1380.97 270.77 1118.55 2005.56"/>
      <polygon class="cls-8" points="1388.07 1831.71 327.88 2042.59 46.74 314.88 1106.92 104 1388.07 1831.71"/>
      <polygon class="cls-11" points="1406.33 1808.88 351.17 2054.67 28.47 337.71 1083.64 91.92 1406.33 1808.88"/>
    </g>
    <rect class="cls-14" x="183.39" y="239.2" width="1082.21" height="1662.96"/>
  </g>
  <text class="cls-18" transform="translate(366.32 616.16) scale(1.02 1)"><tspan class="cls-1"><tspan x="0" y="0">GREEN</tspan></tspan><tspan class="cls-4"><tspan class="cls-19" x="16.34" y="185.21">&amp; RE</tspan><tspan x="550.96" y="185.21">D</tspan></tspan><tspan class="cls-16"><tspan class="cls-2" x=".92" y="384.56">ARE </tspan><tspan class="cls-13" x="339.73" y="384.56">N</tspan><tspan class="cls-12" x="445.38" y="384.56">O</tspan><tspan class="cls-5" x="588.18" y="384.56">T</tspan></tspan><tspan class="cls-3"><tspan class="cls-17" x="7.33" y="583.9">SAM</tspan><tspan x="556.38" y="583.9">E</tspan></tspan></text>
  <image width="3185" height="1671" transform="translate(480.69 1545.38) scale(.15 .14)" xlink:href="Logo_01 (2)1.png"/>
</svg>