<?xml version="1.0" encoding="UTF-8"?>
<svg id="Layer_1" data-name="Layer 1" xmlns="http://www.w3.org/2000/svg" xmlns:xlink="http://www.w3.org/1999/xlink" viewBox="0 0 1440 2160">
  <defs>
    <style>
      .cls-1 {
        font-size: 194.96px;
        letter-spacing: .08em;
      }

      .cls-1, .cls-2, .cls-3, .cls-4 {
        fill: #fff;
      }

      .cls-2, .cls-5 {
        letter-spacing: -.02em;
      }

      .cls-6 {
        fill: #ff8500;
      }

      .cls-6, .cls-7, .cls-8, .cls-9, .cls-10 {
        opacity: .4;
      }

      .cls-11 {
        fill: #ffec00;
        opacity: .1;
      }

      .cls-12 {
        letter-spacing: -.06em;
      }

      .cls-12, .cls-5, .cls-13 {
        fill: #ff7f00;
      }

      .cls-14 {
        fill: none;
        stroke: #fff;
        stroke-miterlimit: 10;
        stroke-width: 5px;
      }

      .cls-7 {
        fill: #ff4800;
      }

      .cls-15 {
        opacity: .2;
      }

      .cls-15, .cls-10 {
        fill: red;
      }

      .cls-16 {
        font-size: 165.71px;
      }

      .cls-17 {
        letter-spacing: .22em;
      }

      .cls-18 {
        font-family: CaviarDreams-Bold, 'Caviar Dreams';
        font-weight: 700;
      }

      .cls-19 {
        letter-spacing: .23em;
      }

      .cls-3 {
        font-size: 199.35px;
      }

      .cls-20 {
        fill: #efefef;
      }

      .cls-8 {
        fill: #ffa300;
      }

      .cls-9 {
        fill: #ffc200;
      }

      .cls-4 {
        font-size: 175.46px;
      }

      .cls-13 {
        letter-spacing: -.03em;
      }
    </style>
  </defs>
  <rect class="cls-20" x="-2.86" y="-6.22" width="1445.72" height="2173.41"/>
  <g>
    <g>
      <polygon class="cls-7" points="1107.57 2024.54 40.9 1872.82 259.91 131.19 1326.59 282.91 1107.57 2024.54"/>
      <polygon class="cls-10" points="1137.04 1974.85 63.2 1897.84 179.25 145.21 1253.09 222.22 1137.04 1974.85"/>
      <polygon class="cls-10" points="1062.14 2063.63 12.25 1811.29 369.88 96.13 1419.78 348.47 1062.14 2063.63"/>
      <polygon class="cls-15" points="1079.17 2060.23 26.15 1821.28 361.91 101.71 1414.94 340.65 1079.17 2060.23"/>
      <polygon class="cls-6" points="1218.57 1982.87 143.22 1932.93 221.95 178.09 1297.3 228.04 1218.57 1982.87"/>
      <polygon class="cls-6" points="1355.6 1874.1 287.48 2028.06 84.92 286.87 1153.04 132.91 1355.6 1874.1"/>
      <polygon class="cls-6" points="1355.6 1874.1 287.48 2028.06 84.92 286.87 1153.04 132.91 1355.6 1874.1"/>
      <polygon class="cls-9" points="1335.91 1892.28 264.58 2015.39 104.61 268.69 1175.94 145.58 1335.91 1892.28"/>
      <polygon class="cls-9" points="1121.41 2012.75 59.09 1829.54 321.51 94.74 1383.83 277.96 1121.41 2012.75"/>
      <polygon class="cls-8" points="1390.93 1838.9 330.74 2049.78 49.59 322.07 1109.78 111.19 1390.93 1838.9"/>
      <polygon class="cls-11" points="1409.19 1816.07 354.03 2061.86 31.33 344.9 1086.49 99.11 1409.19 1816.07"/>
    </g>
    <rect class="cls-14" x="186.24" y="246.39" width="1082.21" height="1662.96"/>
  </g>
  <text class="cls-18" transform="translate(369.17 623.35) scale(1.02 1)"><tspan class="cls-1"><tspan x="0" y="0">GREEN</tspan></tspan><tspan class="cls-4"><tspan class="cls-19" x="16.34" y="185.21">&amp; RE</tspan><tspan x="550.96" y="185.21">D</tspan></tspan><tspan class="cls-16"><tspan class="cls-2" x=".92" y="384.56">ARE </tspan><tspan class="cls-13" x="339.73" y="384.56">N</tspan><tspan class="cls-12" x="445.38" y="384.56">O</tspan><tspan class="cls-5" x="588.18" y="384.56">T</tspan></tspan><tspan class="cls-3"><tspan class="cls-17" x="7.33" y="583.9">SAM</tspan><tspan x="556.38" y="583.9">E</tspan></tspan></text>
  <image width="3185" height="1671" transform="translate(471.56 1552.09) scale(.15 .14)" xlink:href="Logo_01 (2)1.png"/>
</svg>